<svg width="32" height="32" viewBox="0 0 32 32" xmlns="http://www.w3.org/2000/svg">
  <defs>
    <linearGradient id="wifiGradient" x1="0%" y1="0%" x2="100%" y2="100%">
      <stop offset="0%" style="stop-color:#4CAF50;stop-opacity:1" />
      <stop offset="100%" style="stop-color:#2E7D32;stop-opacity:1" />
    </linearGradient>
  </defs>
  <path d="M16 6 C23.18 6 29 11.82 29 19 C29 19.55 28.55 20 28 20 C27.45 20 27 19.55 27 19 C27 12.93 22.07 8 16 8 C9.93 8 5 12.93 5 19 C5 19.55 4.55 20 4 20 C3.45 20 3 19.55 3 19 C3 11.82 8.82 6 16 6 Z" fill="url(#wifiGradient)"/>
  <path d="M16 10 C20.97 10 25 14.03 25 19 C25 19.55 24.55 20 24 20 C23.45 20 23 19.55 23 19 C23 15.14 19.86 12 16 12 C12.14 12 9 15.14 9 19 C9 19.55 8.55 20 8 20 C7.45 20 7 19.55 7 19 C7 14.03 11.03 10 16 10 Z" fill="url(#wifiGradient)"/>
  <path d="M16 14 C18.76 14 21 16.24 21 19 C21 19.55 20.55 20 20 20 C19.45 20 19 19.55 19 19 C19 17.34 17.66 16 16 16 C14.34 16 13 17.34 13 19 C13 19.55 12.55 20 12 20 C11.45 20 11 19.55 11 19 C11 16.24 13.24 14 16 14 Z" fill="url(#wifiGradient)"/>
  <circle cx="16" cy="24" r="3" fill="url(#wifiGradient)"/>
</svg>
